<svg xmlns="http://www.w3.org/2000/svg" xmlns:xlink="http://www.w3.org/1999/xlink" width="500" zoomAndPan="magnify" viewBox="0 0 375 374.999991" height="500" preserveAspectRatio="xMidYMid meet" version="1.0"><defs><g/></defs><path stroke-linecap="butt" transform="matrix(0.75, 0, 0, 0.75, -11.462877, -98.700886)" fill="none" stroke-linejoin="miter" d="M 41.013005 333.345995 C 41.013005 319.064744 43.101547 306.002244 47.278631 294.153284 C 51.533839 282.304325 57.382798 272.200158 64.825507 263.845991 C 72.346341 255.413699 81.3828 248.960573 91.940092 244.481406 C 102.497384 239.924114 114.309885 237.642864 127.372386 237.642864 C 146.36197 237.642864 162.08593 241.934531 174.544264 250.517865 C 186.99739 259.101199 195.236974 271.137658 199.263016 286.632451 L 203.023433 286.632451 L 203.023433 242.314739 L 242.674477 242.314739 L 242.674477 576.017886 L 200.632807 576.017886 L 200.632807 499.002256 C 200.632807 494.668923 200.705724 490.038714 200.861974 485.101214 C 201.013016 480.085588 201.429682 475.226213 202.111974 470.517879 C 202.419266 465.278296 202.721349 459.997045 203.023433 454.679337 L 199.263016 454.679337 C 195.236974 470.252254 186.99739 482.33038 174.544264 490.908506 C 162.08593 499.418923 146.36197 503.668923 127.372386 503.668923 C 114.309885 503.668923 102.497384 501.42934 91.940092 496.950173 C 81.3828 492.392881 72.346341 485.934547 64.825507 477.58038 C 57.382798 469.148088 51.533839 459.049129 47.278631 447.273086 C 43.101547 435.424127 41.013005 422.325168 41.013005 407.971 Z M 83.054675 403.299125 C 83.054675 422.892876 88.408842 438.465794 99.117176 450.007461 C 109.903635 461.48142 124.601552 467.215796 143.210929 467.215796 C 160.67968 467.215796 174.617181 461.48142 185.023431 450.007461 C 195.429682 438.465794 200.632807 422.892876 200.632807 403.299125 L 200.632807 338.017871 C 200.632807 318.418911 195.429682 302.88766 185.023431 291.418909 C 174.617181 279.872033 160.67968 274.1012 143.210929 274.1012 C 124.299469 274.1012 109.523426 279.720992 98.893217 290.960576 C 88.335925 302.127243 83.054675 317.814744 83.054675 338.017871 Z M 83.054675 403.299125 " stroke="#700009" stroke-width="35.000027" stroke-opacity="1" stroke-miterlimit="4"/><g fill="#e06c75" fill-opacity="1"><g transform="translate(-11.462877, 275.549089)"><g><path d="M 30.796875 -124.25 C 30.796875 -134.976562 32.367188 -144.773438 35.515625 -153.640625 C 38.671875 -162.515625 43.046875 -170.097656 48.640625 -176.390625 C 54.242188 -182.691406 61.007812 -187.535156 68.9375 -190.921875 C 76.875 -194.304688 85.742188 -196 95.546875 -196 C 109.785156 -196 121.570312 -192.789062 130.90625 -186.375 C 140.238281 -179.957031 146.421875 -170.914062 149.453125 -159.25 L 152.25 -159.25 L 152.25 -192.5 L 182 -192.5 L 182 57.75 L 150.5 57.75 L 150.5 0 C 150.5 -3.269531 150.554688 -6.769531 150.671875 -10.5 C 150.785156 -14.226562 151.078125 -17.84375 151.546875 -21.34375 C 151.785156 -25.3125 152.019531 -29.28125 152.25 -33.25 L 149.453125 -33.25 C 146.421875 -21.582031 140.238281 -12.539062 130.90625 -6.125 C 121.570312 0.289062 109.785156 3.5 95.546875 3.5 C 85.742188 3.5 76.875 1.804688 68.9375 -1.578125 C 61.007812 -4.960938 54.242188 -9.800781 48.640625 -16.09375 C 43.046875 -22.394531 38.671875 -29.976562 35.515625 -38.84375 C 32.367188 -47.71875 30.796875 -57.519531 30.796875 -68.25 Z M 62.296875 -71.75 C 62.296875 -57.050781 66.320312 -45.382812 74.375 -36.75 C 82.425781 -28.113281 93.453125 -23.796875 107.453125 -23.796875 C 120.515625 -23.796875 130.953125 -28.113281 138.765625 -36.75 C 146.585938 -45.382812 150.5 -57.050781 150.5 -71.75 L 150.5 -120.75 C 150.5 -135.445312 146.585938 -147.113281 138.765625 -155.75 C 130.953125 -164.382812 120.515625 -168.703125 107.453125 -168.703125 C 93.210938 -168.703125 82.125 -164.5 74.1875 -156.09375 C 66.257812 -147.695312 62.296875 -135.914062 62.296875 -120.75 Z M 62.296875 -71.75 "/></g></g></g><path stroke-linecap="butt" transform="matrix(0.75, 0, 0, 0.75, 172.516371, -98.700886)" fill="none" stroke-linejoin="miter" d="M 37.3688 338.017871 C 37.3688 322.444953 39.457342 308.434535 43.634425 295.976201 C 47.811509 283.517867 53.624009 273.0387 61.066718 264.528282 C 68.587552 255.950157 77.624011 249.340781 88.181303 244.705364 C 98.738595 239.997031 110.551096 237.642864 123.613597 237.642864 C 142.603182 237.642864 158.327141 241.934531 170.780267 250.517865 C 183.238601 259.101199 191.478185 271.137658 195.504227 286.632451 L 199.264644 286.632451 C 198.96256 281.392867 198.655269 276.111617 198.353185 270.799116 C 197.74381 266.163699 197.363602 261.262657 197.21256 256.101199 C 197.061519 250.934532 196.988602 246.340781 196.988602 242.314739 L 196.988602 158.345984 L 238.91048 158.345984 L 238.91048 499.002256 L 199.264644 499.002256 L 199.264644 454.679337 L 195.504227 454.679337 C 191.478185 470.252254 183.238601 482.33038 170.780267 490.908506 C 158.327141 499.418923 142.603182 503.668923 123.613597 503.668923 C 110.551096 503.668923 98.738595 501.356423 88.181303 496.721006 C 77.624011 492.012672 68.587552 485.403297 61.066718 476.898088 C 53.624009 468.314754 47.811509 457.79392 43.634425 445.340794 C 39.457342 432.88246 37.3688 418.866834 37.3688 403.299125 Z M 139.566723 467.215796 C 156.957349 467.215796 170.858392 461.48142 181.264643 450.007461 C 191.74381 438.465794 196.988602 422.892876 196.988602 403.299125 L 196.988602 338.017871 C 196.988602 318.418911 191.74381 302.88766 181.264643 291.418909 C 170.858392 279.872033 156.957349 274.1012 139.566723 274.1012 C 120.577139 274.1012 105.764638 279.720992 95.134429 290.960576 C 84.571928 302.127243 79.295886 317.814744 79.295886 338.017871 L 79.295886 403.299125 C 79.295886 422.892876 84.650053 438.465794 95.358387 450.007461 C 106.144846 461.48142 120.879222 467.215796 139.566723 467.215796 Z M 139.566723 467.215796 " stroke="#376218" stroke-width="35.000027" stroke-opacity="1" stroke-miterlimit="4"/><g fill="#98c379" fill-opacity="1"><g transform="translate(172.516371, 275.549089)"><g><path d="M 28 -120.75 C 28 -132.414062 29.570312 -142.914062 32.71875 -152.25 C 35.875 -161.582031 40.25 -169.457031 45.84375 -175.875 C 51.445312 -182.289062 58.210938 -187.25 66.140625 -190.75 C 74.078125 -194.25 82.945312 -196 92.75 -196 C 106.976562 -196 118.757812 -192.789062 128.09375 -186.375 C 137.425781 -179.957031 143.613281 -170.914062 146.65625 -159.25 L 149.453125 -159.25 C 149.210938 -163.21875 148.976562 -167.1875 148.75 -171.15625 C 148.28125 -174.65625 147.988281 -178.328125 147.875 -182.171875 C 147.757812 -186.023438 147.703125 -189.46875 147.703125 -192.5 L 147.703125 -255.5 L 179.203125 -255.5 L 179.203125 0 L 149.453125 0 L 149.453125 -33.25 L 146.65625 -33.25 C 143.613281 -21.582031 137.425781 -12.539062 128.09375 -6.125 C 118.757812 0.289062 106.976562 3.5 92.75 3.5 C 82.945312 3.5 74.078125 1.75 66.140625 -1.75 C 58.210938 -5.25 51.445312 -10.207031 45.84375 -16.625 C 40.25 -23.039062 35.875 -30.914062 32.71875 -40.25 C 29.570312 -49.582031 28 -60.082031 28 -71.75 Z M 104.65625 -23.796875 C 117.71875 -23.796875 128.15625 -28.113281 135.96875 -36.75 C 143.789062 -45.382812 147.703125 -57.050781 147.703125 -71.75 L 147.703125 -120.75 C 147.703125 -135.445312 143.789062 -147.113281 135.96875 -155.75 C 128.15625 -164.382812 117.71875 -168.703125 104.65625 -168.703125 C 90.414062 -168.703125 79.328125 -164.5 71.390625 -156.09375 C 63.460938 -147.695312 59.5 -135.914062 59.5 -120.75 L 59.5 -71.75 C 59.5 -57.050781 63.523438 -45.382812 71.578125 -36.75 C 79.628906 -28.113281 90.65625 -23.796875 104.65625 -23.796875 Z M 104.65625 -23.796875 "/></g></g></g></svg>