<svg xmlns="http://www.w3.org/2000/svg" xmlns:xlink="http://www.w3.org/1999/xlink" width="500" zoomAndPan="magnify" viewBox="0 0 375 374.999991" height="500" preserveAspectRatio="xMidYMid meet" version="1.0"><defs><g/></defs><g fill="#56b6c2" fill-opacity="0.502"><g transform="translate(7.071044, 240.696027)"><g><path d="M 10.625 -39.875 L 10.625 -49.875 L 24.375 -49.875 C 27.039062 -49.875 29.226562 -50.101562 30.9375 -50.5625 C 32.644531 -51.019531 33.957031 -51.75 34.875 -52.75 C 35.789062 -53.75 36.394531 -55.039062 36.6875 -56.625 C 36.976562 -58.207031 37.039062 -60.125 36.875 -62.375 L 35.625 -83 C 35.457031 -86.25 35.875 -89.164062 36.875 -91.75 C 37.875 -94.332031 39.375 -96.519531 41.375 -98.3125 C 43.375 -100.101562 45.851562 -101.457031 48.8125 -102.375 C 51.769531 -103.289062 55.082031 -103.75 58.75 -103.75 L 64.375 -103.75 L 64.375 -93.75 L 58.75 -93.75 C 54.75 -93.75 51.726562 -92.851562 49.6875 -91.0625 C 47.644531 -89.269531 46.707031 -86.582031 46.875 -83 L 48.125 -62.375 C 48.289062 -60.125 48.082031 -57.976562 47.5 -55.9375 C 46.914062 -53.894531 46.019531 -52.101562 44.8125 -50.5625 C 43.601562 -49.019531 42.082031 -47.789062 40.25 -46.875 C 38.414062 -45.957031 36.25 -45.457031 33.75 -45.375 L 33.75 -44.75 C 36.25 -44.664062 38.4375 -44.144531 40.3125 -43.1875 C 42.1875 -42.226562 43.707031 -40.957031 44.875 -39.375 C 46.039062 -37.789062 46.914062 -35.957031 47.5 -33.875 C 48.082031 -31.789062 48.289062 -29.625 48.125 -27.375 L 46.875 -7 C 46.707031 -3.414062 47.644531 -0.726562 49.6875 1.0625 C 51.726562 2.851562 54.75 3.75 58.75 3.75 L 64.375 3.75 L 64.375 13.75 L 58.75 13.75 C 55.082031 13.75 51.769531 13.289062 48.8125 12.375 C 45.851562 11.457031 43.375 10.101562 41.375 8.3125 C 39.375 6.519531 37.875 4.332031 36.875 1.75 C 35.875 -0.832031 35.457031 -3.75 35.625 -7 L 36.875 -27.375 C 37.039062 -29.625 36.976562 -31.539062 36.6875 -33.125 C 36.394531 -34.707031 35.789062 -36 34.875 -37 C 33.957031 -38 32.664062 -38.726562 31 -39.1875 C 29.332031 -39.644531 27.125 -39.875 24.375 -39.875 Z M 10.625 -39.875 "/></g></g></g><g fill="#e5c07b" fill-opacity="1"><g transform="translate(0.0000045, 233.624985)"><g><path d="M 10.625 -39.875 L 10.625 -49.875 L 24.375 -49.875 C 27.039062 -49.875 29.226562 -50.101562 30.9375 -50.5625 C 32.644531 -51.019531 33.957031 -51.75 34.875 -52.75 C 35.789062 -53.75 36.394531 -55.039062 36.6875 -56.625 C 36.976562 -58.207031 37.039062 -60.125 36.875 -62.375 L 35.625 -83 C 35.457031 -86.25 35.875 -89.164062 36.875 -91.75 C 37.875 -94.332031 39.375 -96.519531 41.375 -98.3125 C 43.375 -100.101562 45.851562 -101.457031 48.8125 -102.375 C 51.769531 -103.289062 55.082031 -103.75 58.75 -103.75 L 64.375 -103.75 L 64.375 -93.75 L 58.75 -93.75 C 54.75 -93.75 51.726562 -92.851562 49.6875 -91.0625 C 47.644531 -89.269531 46.707031 -86.582031 46.875 -83 L 48.125 -62.375 C 48.289062 -60.125 48.082031 -57.976562 47.5 -55.9375 C 46.914062 -53.894531 46.019531 -52.101562 44.8125 -50.5625 C 43.601562 -49.019531 42.082031 -47.789062 40.25 -46.875 C 38.414062 -45.957031 36.25 -45.457031 33.75 -45.375 L 33.75 -44.75 C 36.25 -44.664062 38.4375 -44.144531 40.3125 -43.1875 C 42.1875 -42.226562 43.707031 -40.957031 44.875 -39.375 C 46.039062 -37.789062 46.914062 -35.957031 47.5 -33.875 C 48.082031 -31.789062 48.289062 -29.625 48.125 -27.375 L 46.875 -7 C 46.707031 -3.414062 47.644531 -0.726562 49.6875 1.0625 C 51.726562 2.851562 54.75 3.75 58.75 3.75 L 64.375 3.75 L 64.375 13.75 L 58.75 13.75 C 55.082031 13.75 51.769531 13.289062 48.8125 12.375 C 45.851562 11.457031 43.375 10.101562 41.375 8.3125 C 39.375 6.519531 37.875 4.332031 36.875 1.75 C 35.875 -0.832031 35.457031 -3.75 35.625 -7 L 36.875 -27.375 C 37.039062 -29.625 36.976562 -31.539062 36.6875 -33.125 C 36.394531 -34.707031 35.789062 -36 34.875 -37 C 33.957031 -38 32.664062 -38.726562 31 -39.1875 C 29.332031 -39.644531 27.125 -39.875 24.375 -39.875 Z M 10.625 -39.875 "/></g></g></g><g fill="#56b6c2" fill-opacity="0.502"><g transform="translate(82.071039, 240.696027)"><g><path d="M 11 -44.375 C 11 -48.207031 11.5625 -51.707031 12.6875 -54.875 C 13.8125 -58.039062 15.375 -60.75 17.375 -63 C 19.375 -65.25 21.789062 -66.976562 24.625 -68.1875 C 27.457031 -69.394531 30.625 -70 34.125 -70 C 39.207031 -70 43.414062 -68.851562 46.75 -66.5625 C 50.082031 -64.269531 52.289062 -61.039062 53.375 -56.875 L 54.375 -56.875 L 54.375 -68.75 L 65 -68.75 L 65 20.625 L 53.75 20.625 L 53.75 0 C 53.75 -1.164062 53.769531 -2.414062 53.8125 -3.75 C 53.851562 -5.082031 53.957031 -6.375 54.125 -7.625 C 54.207031 -9.039062 54.289062 -10.457031 54.375 -11.875 L 53.375 -11.875 C 52.289062 -7.707031 50.082031 -4.476562 46.75 -2.1875 C 43.414062 0.101562 39.207031 1.25 34.125 1.25 C 30.625 1.25 27.457031 0.644531 24.625 -0.5625 C 21.789062 -1.769531 19.375 -3.5 17.375 -5.75 C 15.375 -8 13.8125 -10.707031 12.6875 -13.875 C 11.5625 -17.039062 11 -20.539062 11 -24.375 Z M 22.25 -25.625 C 22.25 -20.375 23.6875 -16.207031 26.5625 -13.125 C 29.4375 -10.039062 33.375 -8.5 38.375 -8.5 C 43.039062 -8.5 46.769531 -10.039062 49.5625 -13.125 C 52.351562 -16.207031 53.75 -20.375 53.75 -25.625 L 53.75 -43.125 C 53.75 -48.375 52.351562 -52.539062 49.5625 -55.625 C 46.769531 -58.707031 43.039062 -60.25 38.375 -60.25 C 33.289062 -60.25 29.332031 -58.75 26.5 -55.75 C 23.664062 -52.75 22.25 -48.539062 22.25 -43.125 Z M 22.25 -25.625 "/></g></g></g><g fill="#e06c75" fill-opacity="1"><g transform="translate(75, 233.624985)"><g><path d="M 11 -44.375 C 11 -48.207031 11.5625 -51.707031 12.6875 -54.875 C 13.8125 -58.039062 15.375 -60.75 17.375 -63 C 19.375 -65.25 21.789062 -66.976562 24.625 -68.1875 C 27.457031 -69.394531 30.625 -70 34.125 -70 C 39.207031 -70 43.414062 -68.851562 46.75 -66.5625 C 50.082031 -64.269531 52.289062 -61.039062 53.375 -56.875 L 54.375 -56.875 L 54.375 -68.75 L 65 -68.75 L 65 20.625 L 53.75 20.625 L 53.75 0 C 53.75 -1.164062 53.769531 -2.414062 53.8125 -3.75 C 53.851562 -5.082031 53.957031 -6.375 54.125 -7.625 C 54.207031 -9.039062 54.289062 -10.457031 54.375 -11.875 L 53.375 -11.875 C 52.289062 -7.707031 50.082031 -4.476562 46.75 -2.1875 C 43.414062 0.101562 39.207031 1.25 34.125 1.25 C 30.625 1.25 27.457031 0.644531 24.625 -0.5625 C 21.789062 -1.769531 19.375 -3.5 17.375 -5.75 C 15.375 -8 13.8125 -10.707031 12.6875 -13.875 C 11.5625 -17.039062 11 -20.539062 11 -24.375 Z M 22.25 -25.625 C 22.25 -20.375 23.6875 -16.207031 26.5625 -13.125 C 29.4375 -10.039062 33.375 -8.5 38.375 -8.5 C 43.039062 -8.5 46.769531 -10.039062 49.5625 -13.125 C 52.351562 -16.207031 53.75 -20.375 53.75 -25.625 L 53.75 -43.125 C 53.75 -48.375 52.351562 -52.539062 49.5625 -55.625 C 46.769531 -58.707031 43.039062 -60.25 38.375 -60.25 C 33.289062 -60.25 29.332031 -58.75 26.5 -55.75 C 23.664062 -52.75 22.25 -48.539062 22.25 -43.125 Z M 22.25 -25.625 "/></g></g></g><g fill="#56b6c2" fill-opacity="0.502"><g transform="translate(157.071034, 240.696027)"><g><path d="M 27.25 -8.875 C 27.25 -11.875 28.207031 -14.3125 30.125 -16.1875 C 32.039062 -18.0625 34.5 -19 37.5 -19 C 40.5 -19 42.957031 -18.0625 44.875 -16.1875 C 46.789062 -14.3125 47.75 -11.875 47.75 -8.875 C 47.75 -5.875 46.789062 -3.4375 44.875 -1.5625 C 42.957031 0.3125 40.5 1.25 37.5 1.25 C 34.5 1.25 32.039062 0.3125 30.125 -1.5625 C 28.207031 -3.4375 27.25 -5.875 27.25 -8.875 Z M 27.25 -59.875 C 27.25 -62.875 28.207031 -65.3125 30.125 -67.1875 C 32.039062 -69.0625 34.5 -70 37.5 -70 C 40.5 -70 42.957031 -69.0625 44.875 -67.1875 C 46.789062 -65.3125 47.75 -62.875 47.75 -59.875 C 47.75 -56.875 46.789062 -54.4375 44.875 -52.5625 C 42.957031 -50.6875 40.5 -49.75 37.5 -49.75 C 34.5 -49.75 32.039062 -50.6875 30.125 -52.5625 C 28.207031 -54.4375 27.25 -56.875 27.25 -59.875 Z M 27.25 -59.875 "/></g></g></g><g fill="#e5c07b" fill-opacity="1"><g transform="translate(149.999995, 233.624985)"><g><path d="M 27.25 -8.875 C 27.25 -11.875 28.207031 -14.3125 30.125 -16.1875 C 32.039062 -18.0625 34.5 -19 37.5 -19 C 40.5 -19 42.957031 -18.0625 44.875 -16.1875 C 46.789062 -14.3125 47.75 -11.875 47.75 -8.875 C 47.75 -5.875 46.789062 -3.4375 44.875 -1.5625 C 42.957031 0.3125 40.5 1.25 37.5 1.25 C 34.5 1.25 32.039062 0.3125 30.125 -1.5625 C 28.207031 -3.4375 27.25 -5.875 27.25 -8.875 Z M 27.25 -59.875 C 27.25 -62.875 28.207031 -65.3125 30.125 -67.1875 C 32.039062 -69.0625 34.5 -70 37.5 -70 C 40.5 -70 42.957031 -69.0625 44.875 -67.1875 C 46.789062 -65.3125 47.75 -62.875 47.75 -59.875 C 47.75 -56.875 46.789062 -54.4375 44.875 -52.5625 C 42.957031 -50.6875 40.5 -49.75 37.5 -49.75 C 34.5 -49.75 32.039062 -50.6875 30.125 -52.5625 C 28.207031 -54.4375 27.25 -56.875 27.25 -59.875 Z M 27.25 -59.875 "/></g></g></g><g fill="#56b6c2" fill-opacity="0.502"><g transform="translate(232.071029, 240.696027)"><g><path d="M 10 -43.125 C 10 -47.289062 10.5625 -51.039062 11.6875 -54.375 C 12.8125 -57.707031 14.375 -60.519531 16.375 -62.8125 C 18.375 -65.101562 20.789062 -66.875 23.625 -68.125 C 26.457031 -69.375 29.625 -70 33.125 -70 C 38.207031 -70 42.414062 -68.851562 45.75 -66.5625 C 49.082031 -64.269531 51.289062 -61.039062 52.375 -56.875 L 53.375 -56.875 C 53.289062 -58.289062 53.207031 -59.707031 53.125 -61.125 C 52.957031 -62.375 52.851562 -63.6875 52.8125 -65.0625 C 52.769531 -66.4375 52.75 -67.664062 52.75 -68.75 L 52.75 -91.25 L 64 -91.25 L 64 0 L 53.375 0 L 53.375 -11.875 L 52.375 -11.875 C 51.289062 -7.707031 49.082031 -4.476562 45.75 -2.1875 C 42.414062 0.101562 38.207031 1.25 33.125 1.25 C 29.625 1.25 26.457031 0.625 23.625 -0.625 C 20.789062 -1.875 18.375 -3.644531 16.375 -5.9375 C 14.375 -8.226562 12.8125 -11.039062 11.6875 -14.375 C 10.5625 -17.707031 10 -21.457031 10 -25.625 Z M 37.375 -8.5 C 42.039062 -8.5 45.769531 -10.039062 48.5625 -13.125 C 51.351562 -16.207031 52.75 -20.375 52.75 -25.625 L 52.75 -43.125 C 52.75 -48.375 51.351562 -52.539062 48.5625 -55.625 C 45.769531 -58.707031 42.039062 -60.25 37.375 -60.25 C 32.289062 -60.25 28.332031 -58.75 25.5 -55.75 C 22.664062 -52.75 21.25 -48.539062 21.25 -43.125 L 21.25 -25.625 C 21.25 -20.375 22.6875 -16.207031 25.5625 -13.125 C 28.4375 -10.039062 32.375 -8.5 37.375 -8.5 Z M 37.375 -8.5 "/></g></g></g><g fill="#98c379" fill-opacity="1"><g transform="translate(224.99999, 233.624985)"><g><path d="M 10 -43.125 C 10 -47.289062 10.5625 -51.039062 11.6875 -54.375 C 12.8125 -57.707031 14.375 -60.519531 16.375 -62.8125 C 18.375 -65.101562 20.789062 -66.875 23.625 -68.125 C 26.457031 -69.375 29.625 -70 33.125 -70 C 38.207031 -70 42.414062 -68.851562 45.75 -66.5625 C 49.082031 -64.269531 51.289062 -61.039062 52.375 -56.875 L 53.375 -56.875 C 53.289062 -58.289062 53.207031 -59.707031 53.125 -61.125 C 52.957031 -62.375 52.851562 -63.6875 52.8125 -65.0625 C 52.769531 -66.4375 52.75 -67.664062 52.75 -68.75 L 52.75 -91.25 L 64 -91.25 L 64 0 L 53.375 0 L 53.375 -11.875 L 52.375 -11.875 C 51.289062 -7.707031 49.082031 -4.476562 45.75 -2.1875 C 42.414062 0.101562 38.207031 1.25 33.125 1.25 C 29.625 1.25 26.457031 0.625 23.625 -0.625 C 20.789062 -1.875 18.375 -3.644531 16.375 -5.9375 C 14.375 -8.226562 12.8125 -11.039062 11.6875 -14.375 C 10.5625 -17.707031 10 -21.457031 10 -25.625 Z M 37.375 -8.5 C 42.039062 -8.5 45.769531 -10.039062 48.5625 -13.125 C 51.351562 -16.207031 52.75 -20.375 52.75 -25.625 L 52.75 -43.125 C 52.75 -48.375 51.351562 -52.539062 48.5625 -55.625 C 45.769531 -58.707031 42.039062 -60.25 37.375 -60.25 C 32.289062 -60.25 28.332031 -58.75 25.5 -55.75 C 22.664062 -52.75 21.25 -48.539062 21.25 -43.125 L 21.25 -25.625 C 21.25 -20.375 22.6875 -16.207031 25.5625 -13.125 C 28.4375 -10.039062 32.375 -8.5 37.375 -8.5 Z M 37.375 -8.5 "/></g></g></g><g fill="#56b6c2" fill-opacity="0.502"><g transform="translate(307.071024, 240.696027)"><g><path d="M 10.625 13.75 L 10.625 3.75 L 16.25 3.75 C 20.25 3.75 23.269531 2.851562 25.3125 1.0625 C 27.351562 -0.726562 28.289062 -3.414062 28.125 -7 L 26.875 -27.5 C 26.789062 -29.75 27.019531 -31.894531 27.5625 -33.9375 C 28.101562 -35.976562 28.976562 -37.769531 30.1875 -39.3125 C 31.394531 -40.851562 32.914062 -42.082031 34.75 -43 C 36.582031 -43.914062 38.75 -44.414062 41.25 -44.5 L 41.25 -45.125 C 38.75 -45.207031 36.5625 -45.726562 34.6875 -46.6875 C 32.8125 -47.644531 31.289062 -48.914062 30.125 -50.5 C 28.957031 -52.082031 28.101562 -53.914062 27.5625 -56 C 27.019531 -58.082031 26.789062 -60.25 26.875 -62.5 L 28.125 -83 C 28.289062 -86.582031 27.351562 -89.269531 25.3125 -91.0625 C 23.269531 -92.851562 20.25 -93.75 16.25 -93.75 L 10.625 -93.75 L 10.625 -103.75 L 16.25 -103.75 C 19.914062 -103.75 23.226562 -103.289062 26.1875 -102.375 C 29.144531 -101.457031 31.625 -100.101562 33.625 -98.3125 C 35.625 -96.519531 37.125 -94.332031 38.125 -91.75 C 39.125 -89.164062 39.539062 -86.25 39.375 -83 L 38.125 -62.5 C 38.039062 -60.25 38.125 -58.332031 38.375 -56.75 C 38.625 -55.164062 39.207031 -53.875 40.125 -52.875 C 41.039062 -51.875 42.332031 -51.144531 44 -50.6875 C 45.664062 -50.226562 47.875 -50 50.625 -50 L 64.375 -50 L 64.375 -40 L 50.625 -40 C 47.957031 -40 45.769531 -39.769531 44.0625 -39.3125 C 42.351562 -38.851562 41.039062 -38.125 40.125 -37.125 C 39.207031 -36.125 38.625 -34.832031 38.375 -33.25 C 38.125 -31.664062 38.039062 -29.75 38.125 -27.5 L 39.375 -7 C 39.539062 -3.75 39.125 -0.832031 38.125 1.75 C 37.125 4.332031 35.625 6.519531 33.625 8.3125 C 31.625 10.101562 29.144531 11.457031 26.1875 12.375 C 23.226562 13.289062 19.914062 13.75 16.25 13.75 Z M 10.625 13.75 "/></g></g></g><g fill="#e5c07b" fill-opacity="1"><g transform="translate(299.999985, 233.624985)"><g><path d="M 10.625 13.75 L 10.625 3.75 L 16.25 3.75 C 20.25 3.75 23.269531 2.851562 25.3125 1.0625 C 27.351562 -0.726562 28.289062 -3.414062 28.125 -7 L 26.875 -27.5 C 26.789062 -29.75 27.019531 -31.894531 27.5625 -33.9375 C 28.101562 -35.976562 28.976562 -37.769531 30.1875 -39.3125 C 31.394531 -40.851562 32.914062 -42.082031 34.75 -43 C 36.582031 -43.914062 38.75 -44.414062 41.25 -44.5 L 41.25 -45.125 C 38.75 -45.207031 36.5625 -45.726562 34.6875 -46.6875 C 32.8125 -47.644531 31.289062 -48.914062 30.125 -50.5 C 28.957031 -52.082031 28.101562 -53.914062 27.5625 -56 C 27.019531 -58.082031 26.789062 -60.25 26.875 -62.5 L 28.125 -83 C 28.289062 -86.582031 27.351562 -89.269531 25.3125 -91.0625 C 23.269531 -92.851562 20.25 -93.75 16.25 -93.75 L 10.625 -93.75 L 10.625 -103.75 L 16.25 -103.75 C 19.914062 -103.75 23.226562 -103.289062 26.1875 -102.375 C 29.144531 -101.457031 31.625 -100.101562 33.625 -98.3125 C 35.625 -96.519531 37.125 -94.332031 38.125 -91.75 C 39.125 -89.164062 39.539062 -86.25 39.375 -83 L 38.125 -62.5 C 38.039062 -60.25 38.125 -58.332031 38.375 -56.75 C 38.625 -55.164062 39.207031 -53.875 40.125 -52.875 C 41.039062 -51.875 42.332031 -51.144531 44 -50.6875 C 45.664062 -50.226562 47.875 -50 50.625 -50 L 64.375 -50 L 64.375 -40 L 50.625 -40 C 47.957031 -40 45.769531 -39.769531 44.0625 -39.3125 C 42.351562 -38.851562 41.039062 -38.125 40.125 -37.125 C 39.207031 -36.125 38.625 -34.832031 38.375 -33.25 C 38.125 -31.664062 38.039062 -29.75 38.125 -27.5 L 39.375 -7 C 39.539062 -3.75 39.125 -0.832031 38.125 1.75 C 37.125 4.332031 35.625 6.519531 33.625 8.3125 C 31.625 10.101562 29.144531 11.457031 26.1875 12.375 C 23.226562 13.289062 19.914062 13.75 16.25 13.75 Z M 10.625 13.75 "/></g></g></g></svg>