<svg xmlns="http://www.w3.org/2000/svg" xmlns:xlink="http://www.w3.org/1999/xlink" width="500" zoomAndPan="magnify" viewBox="0 0 375 67.499998" height="90" preserveAspectRatio="xMidYMid meet" version="1.0"><defs><g/></defs><g fill="#e5c07b" fill-opacity="1"><g transform="translate(8.090682, 51.741724)"><g><path d="M 9.828125 -20.6875 C 12.734375 -20.6875 14.085938 -22.046875 13.890625 -24.765625 L 13.40625 -32.546875 C 13.332031 -33.910156 13.492188 -35.117188 13.890625 -36.171875 C 14.285156 -37.234375 14.890625 -38.132812 15.703125 -38.875 C 16.515625 -39.625 17.488281 -40.195312 18.625 -40.59375 C 19.769531 -40.988281 21.054688 -41.1875 22.484375 -41.1875 L 25.859375 -41.1875 L 25.859375 -35.484375 L 23.328125 -35.484375 C 22.128906 -35.484375 21.195312 -35.203125 20.53125 -34.640625 C 19.875 -34.078125 19.582031 -33.179688 19.65625 -31.953125 L 20.140625 -24.171875 C 20.242188 -22.316406 19.707031 -20.84375 18.53125 -19.75 C 17.351562 -18.65625 15.789062 -18.078125 13.84375 -18.015625 L 13.84375 -17.765625 C 15.832031 -17.703125 17.40625 -17.097656 18.5625 -15.953125 C 19.71875 -14.816406 20.242188 -13.320312 20.140625 -11.46875 L 19.65625 -3.71875 C 19.582031 -2.625 19.882812 -1.769531 20.5625 -1.15625 C 21.25 -0.550781 22.171875 -0.25 23.328125 -0.25 L 25.859375 -0.25 L 25.859375 5.515625 L 22.484375 5.515625 C 21.085938 5.515625 19.8125 5.304688 18.65625 4.890625 C 17.5 4.472656 16.515625 3.882812 15.703125 3.125 C 14.890625 2.363281 14.273438 1.4375 13.859375 0.34375 C 13.453125 -0.75 13.300781 -1.972656 13.40625 -3.328125 L 13.890625 -10.875 C 13.992188 -12.226562 13.722656 -13.25 13.078125 -13.9375 C 12.429688 -14.632812 11.347656 -14.984375 9.828125 -14.984375 L 3.921875 -14.984375 L 3.921875 -20.6875 Z M 9.828125 -20.6875 "/></g></g></g><g fill="#e06c75" fill-opacity="1"><g transform="translate(37.870091, 51.741724)"><g><path d="M 3.21875 -17.3125 C 3.21875 -18.90625 3.441406 -20.347656 3.890625 -21.640625 C 4.335938 -22.929688 4.972656 -24.03125 5.796875 -24.9375 C 6.628906 -25.84375 7.613281 -26.546875 8.75 -27.046875 C 9.894531 -27.546875 11.179688 -27.796875 12.609375 -27.796875 C 14.585938 -27.796875 16.210938 -27.332031 17.484375 -26.40625 C 18.765625 -25.476562 19.570312 -24.203125 19.90625 -22.578125 L 20.34375 -22.578125 L 20.34375 -27.296875 L 26.296875 -27.296875 L 26.296875 8.1875 L 20.09375 8.1875 L 20.09375 0 C 20.09375 -0.5 20.097656 -1.007812 20.109375 -1.53125 C 20.128906 -2.0625 20.15625 -2.550781 20.1875 -3 C 20.226562 -3.445312 20.265625 -3.828125 20.296875 -4.140625 C 20.328125 -4.453125 20.34375 -4.660156 20.34375 -4.765625 L 19.90625 -4.765625 C 19.570312 -3.109375 18.765625 -1.816406 17.484375 -0.890625 C 16.210938 0.0351562 14.585938 0.5 12.609375 0.5 C 11.179688 0.5 9.894531 0.25 8.75 -0.25 C 7.613281 -0.75 6.628906 -1.457031 5.796875 -2.375 C 4.972656 -3.300781 4.335938 -4.414062 3.890625 -5.71875 C 3.441406 -7.03125 3.21875 -8.5 3.21875 -10.125 Z M 14.78125 -22.4375 C 13.09375 -22.4375 11.773438 -21.945312 10.828125 -20.96875 C 9.890625 -19.988281 9.421875 -18.65625 9.421875 -16.96875 L 9.421875 -10.46875 C 9.421875 -8.78125 9.890625 -7.429688 10.828125 -6.421875 C 11.773438 -5.410156 13.09375 -4.90625 14.78125 -4.90625 C 16.4375 -4.90625 17.734375 -5.398438 18.671875 -6.390625 C 19.617188 -7.390625 20.09375 -8.703125 20.09375 -10.328125 L 20.09375 -16.96875 C 20.09375 -18.625 19.601562 -19.945312 18.625 -20.9375 C 17.65625 -21.9375 16.375 -22.4375 14.78125 -22.4375 Z M 14.78125 -22.4375 "/></g></g></g><g fill="#e06c75" fill-opacity="1"><g transform="translate(67.644889, 51.741724)"><g><path d="M 3.71875 -27.296875 L 9.96875 -27.296875 L 9.96875 -10.21875 C 9.96875 -6.675781 11.609375 -4.90625 14.890625 -4.90625 C 18.191406 -4.90625 19.84375 -6.675781 19.84375 -10.21875 L 19.84375 -27.296875 L 26.046875 -27.296875 L 26.046875 -10.21875 C 26.046875 -6.8125 25.0625 -4.171875 23.09375 -2.296875 C 21.125 -0.429688 18.390625 0.5 14.890625 0.5 C 11.347656 0.5 8.597656 -0.441406 6.640625 -2.328125 C 4.691406 -4.210938 3.71875 -6.84375 3.71875 -10.21875 Z M 3.71875 -27.296875 "/></g></g></g><g fill="#e06c75" fill-opacity="1"><g transform="translate(97.419686, 51.741724)"><g><path d="M 4.125 -5.65625 L 13.890625 -5.65625 L 13.890625 -21.6875 L 5.359375 -21.6875 L 5.359375 -27.296875 L 19.84375 -27.296875 L 19.84375 -5.65625 L 27.734375 -5.65625 L 27.734375 0 L 4.125 0 Z M 12.109375 -34.6875 C 12.109375 -35.644531 12.429688 -36.429688 13.078125 -37.046875 C 13.722656 -37.660156 14.570312 -37.96875 15.625 -37.96875 L 16.921875 -37.96875 C 17.984375 -37.96875 18.835938 -37.660156 19.484375 -37.046875 C 20.128906 -36.429688 20.453125 -35.644531 20.453125 -34.6875 C 20.453125 -33.695312 20.117188 -32.898438 19.453125 -32.296875 C 18.785156 -31.703125 17.925781 -31.40625 16.875 -31.40625 L 15.625 -31.40625 C 14.570312 -31.40625 13.722656 -31.703125 13.078125 -32.296875 C 12.429688 -32.898438 12.109375 -33.695312 12.109375 -34.6875 Z M 12.109375 -34.6875 "/></g></g></g><g fill="#e06c75" fill-opacity="1"><g transform="translate(127.194484, 51.741724)"><g><path d="M 4.71875 -27.296875 L 10.5625 -27.296875 L 10.5625 -22.578125 L 11.015625 -22.578125 C 11.347656 -24.234375 12.175781 -25.515625 13.5 -26.421875 C 14.820312 -27.335938 16.507812 -27.796875 18.5625 -27.796875 C 21.5 -27.796875 23.796875 -26.882812 25.453125 -25.0625 C 27.109375 -23.238281 27.9375 -20.722656 27.9375 -17.515625 L 27.9375 -15.53125 L 21.4375 -15.53125 L 21.4375 -16.96875 C 21.4375 -18.726562 20.957031 -20.09375 20 -21.0625 C 19.039062 -22.039062 17.71875 -22.53125 16.03125 -22.53125 C 14.4375 -22.53125 13.1875 -22.03125 12.28125 -21.03125 C 11.375 -20.039062 10.921875 -18.6875 10.921875 -16.96875 L 10.921875 0 L 4.71875 0 Z M 4.71875 -27.296875 "/></g></g></g><g fill="#e06c75" fill-opacity="1"><g transform="translate(156.969282, 51.741724)"><g><path d="M 2.53125 -7.640625 C 2.53125 -8.992188 2.773438 -10.207031 3.265625 -11.28125 C 3.765625 -12.363281 4.476562 -13.285156 5.40625 -14.046875 C 6.332031 -14.804688 7.445312 -15.390625 8.75 -15.796875 C 10.0625 -16.210938 11.53125 -16.421875 13.15625 -16.421875 L 20 -16.421875 L 20 -18.765625 C 20 -20.015625 19.523438 -21.007812 18.578125 -21.75 C 17.640625 -22.5 16.34375 -22.875 14.6875 -22.875 C 13.332031 -22.875 12.191406 -22.625 11.265625 -22.125 C 10.335938 -21.632812 9.742188 -20.957031 9.484375 -20.09375 L 3.375 -20.09375 C 3.800781 -22.476562 5.023438 -24.359375 7.046875 -25.734375 C 9.066406 -27.109375 11.613281 -27.796875 14.6875 -27.796875 C 16.4375 -27.796875 18.023438 -27.585938 19.453125 -27.171875 C 20.878906 -26.753906 22.085938 -26.15625 23.078125 -25.375 C 24.066406 -24.601562 24.832031 -23.660156 25.375 -22.546875 C 25.925781 -21.441406 26.203125 -20.210938 26.203125 -18.859375 L 26.203125 0 L 20.34375 0 L 20.34375 -5.359375 L 19.953125 -5.359375 C 19.617188 -3.578125 18.679688 -2.15625 17.140625 -1.09375 C 15.609375 -0.03125 13.695312 0.5 11.40625 0.5 C 8.695312 0.5 6.539062 -0.234375 4.9375 -1.703125 C 3.332031 -3.179688 2.53125 -5.160156 2.53125 -7.640625 Z M 13.546875 -4.359375 C 15.429688 -4.359375 16.976562 -4.8125 18.1875 -5.71875 C 19.394531 -6.632812 20 -7.789062 20 -9.1875 L 20 -12.359375 L 13.203125 -12.359375 C 11.804688 -12.359375 10.710938 -12.007812 9.921875 -11.3125 C 9.128906 -10.613281 8.734375 -9.640625 8.734375 -8.390625 C 8.734375 -7.128906 9.15625 -6.140625 10 -5.421875 C 10.84375 -4.710938 12.023438 -4.359375 13.546875 -4.359375 Z M 13.546875 -4.359375 "/></g></g></g><g fill="#e5c07b" fill-opacity="1"><g transform="translate(186.755507, 51.741724)"><g><path d="M 10.8125 -3.515625 C 10.8125 -4.710938 11.191406 -5.679688 11.953125 -6.421875 C 12.710938 -7.171875 13.691406 -7.546875 14.890625 -7.546875 C 16.078125 -7.546875 17.050781 -7.171875 17.8125 -6.421875 C 18.570312 -5.679688 18.953125 -4.710938 18.953125 -3.515625 C 18.953125 -2.328125 18.570312 -1.359375 17.8125 -0.609375 C 17.050781 0.128906 16.078125 0.5 14.890625 0.5 C 13.691406 0.5 12.710938 0.128906 11.953125 -0.609375 C 11.191406 -1.359375 10.8125 -2.328125 10.8125 -3.515625 Z M 10.8125 -23.765625 C 10.8125 -24.960938 11.191406 -25.929688 11.953125 -26.671875 C 12.710938 -27.421875 13.691406 -27.796875 14.890625 -27.796875 C 16.078125 -27.796875 17.050781 -27.421875 17.8125 -26.671875 C 18.570312 -25.929688 18.953125 -24.960938 18.953125 -23.765625 C 18.953125 -22.578125 18.570312 -21.609375 17.8125 -20.859375 C 17.050781 -20.117188 16.078125 -19.75 14.890625 -19.75 C 13.691406 -19.75 12.710938 -20.117188 11.953125 -20.859375 C 11.191406 -21.609375 10.8125 -22.578125 10.8125 -23.765625 Z M 10.8125 -23.765625 "/></g></g></g><g fill="#98c379" fill-opacity="1"><g transform="translate(216.534917, 51.741724)"><g><path d="M 3.96875 -17.125 C 3.96875 -18.78125 4.191406 -20.269531 4.640625 -21.59375 C 5.085938 -22.914062 5.707031 -24.03125 6.5 -24.9375 C 7.289062 -25.84375 8.25 -26.546875 9.375 -27.046875 C 10.5 -27.546875 11.757812 -27.796875 13.15625 -27.796875 C 15.164062 -27.796875 16.832031 -27.335938 18.15625 -26.421875 C 19.476562 -25.515625 20.359375 -24.234375 20.796875 -22.578125 L 21.1875 -22.578125 C 21.15625 -23.140625 21.125 -23.703125 21.09375 -24.265625 C 21.019531 -24.765625 20.972656 -25.285156 20.953125 -25.828125 C 20.941406 -26.378906 20.9375 -26.867188 20.9375 -27.296875 L 20.9375 -36.21875 L 25.40625 -36.21875 L 25.40625 0 L 21.1875 0 L 21.1875 -4.71875 L 20.796875 -4.71875 C 20.359375 -3.0625 19.476562 -1.773438 18.15625 -0.859375 C 16.832031 0.046875 15.164062 0.5 13.15625 0.5 C 11.757812 0.5 10.5 0.25 9.375 -0.25 C 8.25 -0.75 7.289062 -1.453125 6.5 -2.359375 C 5.707031 -3.265625 5.085938 -4.378906 4.640625 -5.703125 C 4.191406 -7.023438 3.96875 -8.515625 3.96875 -10.171875 Z M 14.84375 -3.375 C 16.6875 -3.375 18.160156 -3.984375 19.265625 -5.203125 C 20.378906 -6.429688 20.9375 -8.085938 20.9375 -10.171875 L 20.9375 -17.125 C 20.9375 -19.207031 20.378906 -20.859375 19.265625 -22.078125 C 18.160156 -23.304688 16.6875 -23.921875 14.84375 -23.921875 C 12.820312 -23.921875 11.25 -23.320312 10.125 -22.125 C 9 -20.9375 8.4375 -19.269531 8.4375 -17.125 L 8.4375 -10.171875 C 8.4375 -8.085938 9.003906 -6.429688 10.140625 -5.203125 C 11.285156 -3.984375 12.851562 -3.375 14.84375 -3.375 Z M 14.84375 -3.375 "/></g></g></g><g fill="#98c379" fill-opacity="1"><g transform="translate(246.309714, 51.741724)"><g><path d="M 3.125 -7.9375 C 3.125 -9.226562 3.347656 -10.394531 3.796875 -11.4375 C 4.242188 -12.476562 4.890625 -13.363281 5.734375 -14.09375 C 6.578125 -14.820312 7.59375 -15.382812 8.78125 -15.78125 C 9.96875 -16.175781 11.304688 -16.375 12.796875 -16.375 L 20.9375 -16.375 L 20.9375 -18.609375 C 20.9375 -20.296875 20.378906 -21.609375 19.265625 -22.546875 C 18.160156 -23.492188 16.566406 -23.96875 14.484375 -23.96875 C 12.960938 -23.96875 11.664062 -23.6875 10.59375 -23.125 C 9.519531 -22.5625 8.800781 -21.785156 8.4375 -20.796875 L 3.96875 -20.796875 C 4.4375 -22.941406 5.617188 -24.644531 7.515625 -25.90625 C 9.421875 -27.164062 11.78125 -27.796875 14.59375 -27.796875 C 17.96875 -27.796875 20.613281 -27.007812 22.53125 -25.4375 C 24.445312 -23.863281 25.40625 -21.671875 25.40625 -18.859375 L 25.40625 0 L 21.34375 0 L 21.34375 -5.203125 L 20.9375 -5.203125 C 20.507812 -3.453125 19.5 -2.0625 17.90625 -1.03125 C 16.320312 -0.0078125 14.390625 0.5 12.109375 0.5 C 9.359375 0.5 7.171875 -0.257812 5.546875 -1.78125 C 3.929688 -3.300781 3.125 -5.351562 3.125 -7.9375 Z M 13.09375 -3.171875 C 14.21875 -3.171875 15.257812 -3.316406 16.21875 -3.609375 C 17.1875 -3.910156 18.015625 -4.332031 18.703125 -4.875 C 19.398438 -5.425781 19.945312 -6.066406 20.34375 -6.796875 C 20.738281 -7.523438 20.9375 -8.320312 20.9375 -9.1875 L 20.9375 -12.90625 L 12.90625 -12.90625 C 11.25 -12.90625 9.945312 -12.472656 9 -11.609375 C 8.0625 -10.753906 7.59375 -9.566406 7.59375 -8.046875 C 7.59375 -6.515625 8.070312 -5.316406 9.03125 -4.453125 C 9.988281 -3.597656 11.34375 -3.171875 13.09375 -3.171875 Z M 13.09375 -3.171875 "/></g></g></g><g fill="#98c379" fill-opacity="1"><g transform="translate(276.084512, 51.741724)"><g><path d="M 2.984375 -27.296875 L 10.921875 -27.296875 L 10.921875 -35.734375 L 15.390625 -35.734375 L 15.390625 -27.296875 L 26.046875 -27.296875 L 26.046875 -23.21875 L 15.390625 -23.21875 L 15.390625 -7.046875 C 15.390625 -6.117188 15.675781 -5.390625 16.25 -4.859375 C 16.832031 -4.328125 17.617188 -4.0625 18.609375 -4.0625 L 25.5625 -4.0625 L 25.5625 0 L 18.609375 0 C 16.265625 0 14.394531 -0.644531 13 -1.9375 C 11.613281 -3.226562 10.921875 -4.929688 10.921875 -7.046875 L 10.921875 -23.21875 L 2.984375 -23.21875 Z M 2.984375 -27.296875 "/></g></g></g><g fill="#98c379" fill-opacity="1"><g transform="translate(305.859309, 51.741724)"><g><path d="M 3.125 -7.9375 C 3.125 -9.226562 3.347656 -10.394531 3.796875 -11.4375 C 4.242188 -12.476562 4.890625 -13.363281 5.734375 -14.09375 C 6.578125 -14.820312 7.59375 -15.382812 8.78125 -15.78125 C 9.96875 -16.175781 11.304688 -16.375 12.796875 -16.375 L 20.9375 -16.375 L 20.9375 -18.609375 C 20.9375 -20.296875 20.378906 -21.609375 19.265625 -22.546875 C 18.160156 -23.492188 16.566406 -23.96875 14.484375 -23.96875 C 12.960938 -23.96875 11.664062 -23.6875 10.59375 -23.125 C 9.519531 -22.5625 8.800781 -21.785156 8.4375 -20.796875 L 3.96875 -20.796875 C 4.4375 -22.941406 5.617188 -24.644531 7.515625 -25.90625 C 9.421875 -27.164062 11.78125 -27.796875 14.59375 -27.796875 C 17.96875 -27.796875 20.613281 -27.007812 22.53125 -25.4375 C 24.445312 -23.863281 25.40625 -21.671875 25.40625 -18.859375 L 25.40625 0 L 21.34375 0 L 21.34375 -5.203125 L 20.9375 -5.203125 C 20.507812 -3.453125 19.5 -2.0625 17.90625 -1.03125 C 16.320312 -0.0078125 14.390625 0.5 12.109375 0.5 C 9.359375 0.5 7.171875 -0.257812 5.546875 -1.78125 C 3.929688 -3.300781 3.125 -5.351562 3.125 -7.9375 Z M 13.09375 -3.171875 C 14.21875 -3.171875 15.257812 -3.316406 16.21875 -3.609375 C 17.1875 -3.910156 18.015625 -4.332031 18.703125 -4.875 C 19.398438 -5.425781 19.945312 -6.066406 20.34375 -6.796875 C 20.738281 -7.523438 20.9375 -8.320312 20.9375 -9.1875 L 20.9375 -12.90625 L 12.90625 -12.90625 C 11.25 -12.90625 9.945312 -12.472656 9 -11.609375 C 8.0625 -10.753906 7.59375 -9.566406 7.59375 -8.046875 C 7.59375 -6.515625 8.070312 -5.316406 9.03125 -4.453125 C 9.988281 -3.597656 11.34375 -3.171875 13.09375 -3.171875 Z M 13.09375 -3.171875 "/></g></g></g><g fill="#e5c07b" fill-opacity="1"><g transform="translate(335.640926, 51.741724)"><g><path d="M 4.0625 5.515625 L 4.0625 -0.25 L 6.59375 -0.25 C 7.789062 -0.25 8.726562 -0.53125 9.40625 -1.09375 C 10.082031 -1.65625 10.390625 -2.53125 10.328125 -3.71875 L 9.828125 -11.515625 C 9.691406 -13.367188 10.210938 -14.835938 11.390625 -15.921875 C 12.566406 -17.015625 14.128906 -17.597656 16.078125 -17.671875 L 16.078125 -17.921875 C 14.085938 -17.984375 12.515625 -18.582031 11.359375 -19.71875 C 10.203125 -20.863281 9.691406 -22.363281 9.828125 -24.21875 L 10.328125 -31.953125 C 10.390625 -33.078125 10.070312 -33.945312 9.375 -34.5625 C 8.6875 -35.175781 7.757812 -35.484375 6.59375 -35.484375 L 4.0625 -35.484375 L 4.0625 -41.1875 L 7.5 -41.1875 C 8.882812 -41.1875 10.144531 -40.976562 11.28125 -40.5625 C 12.425781 -40.15625 13.40625 -39.570312 14.21875 -38.8125 C 15.03125 -38.050781 15.640625 -37.128906 16.046875 -36.046875 C 16.460938 -34.972656 16.625 -33.757812 16.53125 -32.40625 L 16.03125 -24.8125 C 15.925781 -23.457031 16.195312 -22.441406 16.84375 -21.765625 C 17.488281 -21.085938 18.570312 -20.75 20.09375 -20.75 L 26 -20.75 L 26 -15.03125 L 20.09375 -15.03125 C 17.1875 -15.03125 15.832031 -13.660156 16.03125 -10.921875 L 16.53125 -3.171875 C 16.59375 -1.847656 16.425781 -0.648438 16.03125 0.421875 C 15.632812 1.492188 15.035156 2.410156 14.234375 3.171875 C 13.441406 3.929688 12.46875 4.507812 11.3125 4.90625 C 10.15625 5.3125 8.882812 5.515625 7.5 5.515625 Z M 4.0625 5.515625 "/></g></g></g></svg>